<svg version="1.1" id="Layer_1" xmlns="http://www.w3.org/2000/svg" xmlns:xlink="http://www.w3.org/1999/xlink" x="0px" y="0px" viewBox="0 0 1366 768" xml:space="preserve">
<g>
	<rect x="267.5" y="292.5" style="fill:#FFFF00;" width="891" height="108"></rect>
	<path d="M1158,293v107H268V293H1158 M1159,292H267v109h892V292L1159,292z"></path>
</g>
<g>
	<line style="fill:none;stroke:#000000;stroke-miterlimit:10;" x1="378" y1="400.9" x2="378" y2="291.9"></line>
</g>
<g>
	<g>
		<line style="fill:none;stroke:#000000;stroke-miterlimit:10;" x1="491.7" y1="400.9" x2="491.7" y2="291.9"></line>
	</g>
</g>
<g>
	<line style="fill:none;stroke:#000000;stroke-miterlimit:10;" x1="601.4" y1="400.9" x2="601.4" y2="291.9"></line>
</g>
<g>
	<g>
		<line style="fill:none;stroke:#000000;stroke-miterlimit:10;" x1="712.1" y1="400.9" x2="712.1" y2="291.9"></line>
	</g>
</g>
<g>
	<line style="fill:none;stroke:#000000;stroke-miterlimit:10;" x1="824.4" y1="400.9" x2="824.4" y2="291.9"></line>
</g>
<g>
	<g>
		<line style="fill:none;stroke:#000000;stroke-miterlimit:10;" x1="940.1" y1="400.9" x2="940.1" y2="291.9"></line>
	</g>
</g>
<g>
	<line style="fill:none;stroke:#000000;stroke-miterlimit:10;" x1="1048.4" y1="400.9" x2="1048.4" y2="291.9"></line>
</g>
<g>
	<path style="fill:#3FA9F5;" d="M314.7,240.4c2.5-0.4,5.6-0.7,8.9-0.7c6,0,10.3,1.4,13.1,4c2.9,2.6,4.6,6.4,4.6,11.6
		c0,5.3-1.6,9.6-4.7,12.6c-3,3-8,4.7-14.3,4.7c-3,0-5.5-0.1-7.6-0.4V240.4z M318.8,269c1.1,0.2,2.6,0.2,4.2,0.2
		c8.9,0,13.8-5,13.8-13.7c0-7.6-4.3-12.5-13.1-12.5c-2.2,0-3.8,0.2-4.9,0.4V269z"></path>
</g>
<g>
	<path style="fill:#7AC943;" d="M421.8,240.6c2.5-0.4,5.6-0.7,8.9-0.7c6,0,10.3,1.4,13.1,4c2.9,2.6,4.6,6.4,4.6,11.6
		c0,5.3-1.6,9.6-4.7,12.6c-3,3-8,4.7-14.3,4.7c-3,0-5.5-0.1-7.6-0.4V240.6z M426,269.2c1.1,0.2,2.6,0.2,4.2,0.2
		c8.9,0,13.8-5,13.8-13.7c0-7.6-4.3-12.5-13.1-12.5c-2.2,0-3.8,0.2-4.9,0.4V269.2z"></path>
</g>
<g>
	<path style="fill:#9E005D;" d="M531.2,240.5c2.5-0.4,5.6-0.7,8.9-0.7c6,0,10.3,1.4,13.1,4c2.9,2.6,4.6,6.4,4.6,11.6
		c0,5.3-1.6,9.6-4.7,12.6c-3,3-8,4.7-14.3,4.7c-3,0-5.5-0.1-7.6-0.4V240.5z M535.4,269.1c1.1,0.2,2.6,0.2,4.2,0.2
		c8.9,0,13.8-5,13.8-13.7c0-7.6-4.3-12.5-13.1-12.5c-2.2,0-3.8,0.2-4.9,0.4V269.1z"></path>
</g>
<g>
	<path style="fill:#FF931E;" d="M638.4,240.7c2.5-0.4,5.6-0.7,8.9-0.7c6,0,10.3,1.4,13.1,4c2.9,2.6,4.6,6.4,4.6,11.6
		c0,5.3-1.6,9.6-4.7,12.6c-3,3-8,4.7-14.3,4.7c-3,0-5.5-0.1-7.6-0.4V240.7z M642.6,269.3c1.1,0.2,2.6,0.2,4.2,0.2
		c8.9,0,13.8-5,13.8-13.7c0-7.6-4.3-12.5-13.1-12.5c-2.2,0-3.8,0.2-4.9,0.4V269.3z"></path>
</g>
<g>
	<path style="fill:#9E005D;" d="M746,240.4c2.5-0.4,5.6-0.7,8.9-0.7c6,0,10.3,1.4,13.1,4c2.9,2.6,4.6,6.4,4.6,11.6
		c0,5.3-1.6,9.6-4.7,12.6c-3,3-8,4.7-14.3,4.7c-3,0-5.5-0.1-7.6-0.4V240.4z M750.1,269c1.1,0.2,2.6,0.2,4.2,0.2
		c8.9,0,13.8-5,13.8-13.7c0-7.6-4.3-12.5-13.1-12.5c-2.2,0-3.8,0.2-4.9,0.4V269z"></path>
</g>
<g>
	<path style="fill:#FF1D25;" d="M856.1,240.7c2.5-0.4,5.6-0.7,8.9-0.7c6,0,10.3,1.4,13.1,4c2.9,2.6,4.6,6.4,4.6,11.6
		c0,5.3-1.6,9.6-4.7,12.6c-3,3-8,4.7-14.3,4.7c-3,0-5.5-0.1-7.6-0.4V240.7z M860.3,269.3c1.1,0.2,2.6,0.2,4.2,0.2
		c8.9,0,13.8-5,13.8-13.7c0-7.6-4.3-12.5-13.1-12.5c-2.2,0-3.8,0.2-4.9,0.4V269.3z"></path>
</g>
<g>
	<path style="fill:#9E005D;" d="M963.5,240.6c2.5-0.4,5.6-0.7,8.9-0.7c6,0,10.3,1.4,13.1,4c2.9,2.6,4.6,6.4,4.6,11.6
		c0,5.3-1.6,9.6-4.7,12.6c-3,3-8,4.7-14.3,4.7c-3,0-5.5-0.1-7.6-0.4V240.6z M967.7,269.2c1.1,0.2,2.6,0.2,4.2,0.2
		c8.9,0,13.8-5,13.8-13.7c0-7.6-4.3-12.5-13.1-12.5c-2.2,0-3.8,0.2-4.9,0.4V269.2z"></path>
</g>
<g>
	<path style="fill:#FF7BAC;" d="M1078.7,240.8c2.5-0.4,5.6-0.7,8.9-0.7c6,0,10.3,1.4,13.1,4c2.9,2.6,4.6,6.4,4.6,11.6
		c0,5.3-1.6,9.6-4.7,12.6c-3,3-8,4.7-14.3,4.7c-3,0-5.5-0.1-7.6-0.4V240.8z M1082.9,269.4c1.1,0.2,2.6,0.2,4.2,0.2
		c8.9,0,13.8-5,13.8-13.7c0-7.6-4.3-12.5-13.1-12.5c-2.2,0-3.8,0.2-4.9,0.4V269.4z"></path>
</g>
<g>
	<path style="fill:#3FA9F5;" d="M357.8,255.2v1.5l-7.4,15.4h-2.4l7.3-15v-0.1h-8.3v-1.9H357.8z"></path>
</g>
<g>
	<path style="fill:#7AC943;" d="M461.5,257.8c-0.5,0-1.1,0-1.7,0.1c-3.6,0.6-5.5,3.2-5.9,6h0.1c0.8-1.1,2.2-2,4.1-2
		c3,0,5.1,2.2,5.1,5.5c0,3.1-2.1,6-5.6,6c-3.6,0-6-2.8-6-7.2c0-3.3,1.2-6,2.9-7.6c1.4-1.4,3.3-2.2,5.4-2.5c0.7-0.1,1.2-0.1,1.7-0.1
		V257.8z M460.9,267.5c0-2.4-1.4-3.9-3.5-3.9c-1.4,0-2.7,0.9-3.3,2.1c-0.2,0.3-0.3,0.6-0.3,1c0.1,2.8,1.3,4.8,3.7,4.8
		C459.5,271.6,460.9,270,460.9,267.5z"></path>
</g>
<g>
	<path style="fill:#9E005D;" d="M571,257.1h-6.4l-0.6,4.3c0.4-0.1,0.8-0.1,1.4-0.1c1.3,0,2.6,0.3,3.6,0.9c1.3,0.8,2.4,2.2,2.4,4.3
		c0,3.3-2.6,5.8-6.3,5.8c-1.8,0-3.4-0.5-4.2-1l0.6-1.7c0.7,0.4,2.1,0.9,3.6,0.9c2.2,0,4-1.4,4-3.7c0-2.2-1.5-3.7-4.9-3.7
		c-1,0-1.7,0.1-2.3,0.2l1.1-8.1h8.1V257.1z"></path>
</g>
<g>
	<path style="fill:#9E005D;" d="M997.8,257.3L997.8,257.3l-3,1.6l-0.4-1.7l3.7-2h2v16.9h-2.2V257.3z"></path>
</g>
<g>
	<path style="fill:#FF931E;" d="M676,272.1v-4.6h-7.9V266l7.5-10.8h2.5v10.5h2.4v1.8h-2.4v4.6H676z M676,265.7V260
		c0-0.9,0-1.8,0.1-2.7H676c-0.5,1-0.9,1.7-1.4,2.5l-4.1,5.7v0.1H676z"></path>
</g>
<g>
	<path style="fill:#9E005D;" d="M776.4,269.5c0.6,0.4,2.2,1.1,3.7,1.1c2.9,0,3.8-1.9,3.8-3.3c0-2.4-2.2-3.4-4.4-3.4h-1.3v-1.7h1.3
		c1.7,0,3.8-0.9,3.8-2.9c0-1.4-0.9-2.5-3-2.5c-1.4,0-2.7,0.6-3.4,1.1l-0.6-1.7c0.9-0.6,2.6-1.3,4.4-1.3c3.3,0,4.8,2,4.8,4
		c0,1.7-1,3.2-3.1,4v0.1c2.1,0.4,3.8,2,3.8,4.3c0,2.7-2.1,5.1-6.2,5.1c-1.9,0-3.6-0.6-4.4-1.1L776.4,269.5z"></path>
</g>
<g>
	<path style="fill:#FF7BAC;" d="M1120.1,264.4c0,5.7-2.1,8.9-5.9,8.9c-3.3,0-5.5-3.1-5.6-8.7c0-5.7,2.4-8.8,5.9-8.8
		C1118.1,255.9,1120.1,259.1,1120.1,264.4z M1110.9,264.7c0,4.4,1.4,6.9,3.4,6.9c2.3,0,3.5-2.7,3.5-7c0-4.2-1.1-6.9-3.4-6.9
		C1112.4,257.7,1110.9,260.1,1110.9,264.7z"></path>
</g>
<g>
	<path style="fill:#FF1D25;" d="M887.9,273.1v-1.4l1.8-1.7c4.3-4.1,6.3-6.3,6.3-8.8c0-1.7-0.8-3.3-3.4-3.3c-1.5,0-2.8,0.8-3.6,1.4
		l-0.7-1.6c1.2-1,2.8-1.7,4.8-1.7c3.6,0,5.2,2.5,5.2,4.9c0,3.1-2.3,5.6-5.8,9.1l-1.4,1.2v0.1h7.6v1.9H887.9z"></path>
</g>
<g>
	<path d="M303.1,359.1c2.3,1.4,5.8,2.6,9.4,2.6c5.3,0,8.5-2.8,8.5-6.9c0-3.8-2.2-5.9-7.6-8c-6.6-2.3-10.7-5.8-10.7-11.5
		c0-6.3,5.2-11,13.1-11c4.1,0,7.1,1,8.9,2l-1.4,4.3c-1.3-0.7-4-1.9-7.7-1.9c-5.5,0-7.6,3.3-7.6,6.1c0,3.8,2.5,5.6,8,7.8
		c6.8,2.6,10.3,5.9,10.3,11.9c0,6.2-4.6,11.6-14.2,11.6c-3.9,0-8.2-1.1-10.3-2.6L303.1,359.1z"></path>
</g>
<g>
	<path d="M420.3,362.6l22.4-32.8v-0.2h-20.5v-4.4h27.3v3.2l-22.3,32.7v0.2h22.6v4.4h-29.5V362.6z"></path>
</g>
<g>
	<path d="M554.2,367.1l-5.2-8.9c-2.1-3.4-3.4-5.6-4.7-8h-0.1c-1.1,2.3-2.3,4.5-4.4,8l-4.9,8.9h-6l12.4-20.5l-11.9-20h6.1l5.3,9.5
		c1.5,2.6,2.6,4.7,3.7,6.8h0.2c1.1-2.4,2.2-4.3,3.7-6.8l5.5-9.5h6l-12.3,19.7l12.6,20.8H554.2z"></path>
</g>
<g>
	<path d="M632.9,353l-4.2,12.7h-5.4l13.7-40.4h6.3l13.8,40.4h-5.6l-4.3-12.7H632.9z M646.2,348.9l-4-11.6c-0.9-2.6-1.5-5-2.1-7.4
		H640c-0.6,2.4-1.3,4.9-2,7.3l-4,11.7H646.2z"></path>
	<path d="M690.5,364.4c-1.9,1-5.8,1.9-10.7,1.9c-11.4,0-20-7.2-20-20.5c0-12.7,8.6-21.2,21.1-21.2c5,0,8.2,1.1,9.6,1.8l-1.3,4.3
		c-2-1-4.8-1.7-8.2-1.7c-9.5,0-15.8,6.1-15.8,16.7c0,9.9,5.7,16.3,15.5,16.3c3.2,0,6.4-0.7,8.5-1.7L690.5,364.4z"></path>
</g>
<g>
	<path d="M781.4,365.8l-5.2-8.9c-2.1-3.4-3.4-5.6-4.7-8h-0.1c-1.1,2.3-2.3,4.5-4.4,8l-4.9,8.9h-6l12.4-20.5l-11.9-20h6.1l5.3,9.5
		c1.5,2.6,2.6,4.7,3.7,6.8h0.2c1.1-2.4,2.2-4.3,3.7-6.8l5.5-9.5h6L774.8,345l12.6,20.8H781.4z"></path>
</g>
<g>
	<path d="M875.8,326.1c2.5-0.4,5.8-0.8,10-0.8c5.2,0,8.9,1.2,11.3,3.4c2.2,1.9,3.5,4.9,3.5,8.5c0,3.7-1.1,6.5-3.1,8.6
		c-2.8,2.9-7.3,4.4-12.4,4.4c-1.6,0-3-0.1-4.2-0.4V366h-5.2V326.1z M881,345.6c1.1,0.3,2.6,0.4,4.3,0.4c6.3,0,10.1-3.1,10.1-8.6
		c0-5.3-3.8-7.9-9.5-7.9c-2.3,0-4,0.2-4.9,0.4V345.6z"></path>
</g>
<g>
	<path d="M1006.9,365.8l-5.2-8.9c-2.1-3.4-3.4-5.6-4.7-8h-0.1c-1.1,2.3-2.3,4.5-4.4,8l-4.9,8.9h-6l12.4-20.5l-11.9-20h6.1l5.3,9.5
		c1.5,2.6,2.6,4.7,3.7,6.8h0.2c1.1-2.4,2.2-4.3,3.7-6.8l5.5-9.5h6l-12.3,19.7l12.6,20.8H1006.9z"></path>
</g>
<g>
	<path d="M1103.4,368c-1.9,1-5.8,1.9-10.7,1.9c-11.4,0-20-7.2-20-20.5c0-12.7,8.6-21.2,21.1-21.2c5,0,8.2,1.1,9.6,1.8l-1.3,4.3
		c-2-1-4.8-1.7-8.2-1.7c-9.5,0-15.8,6.1-15.8,16.7c0,9.9,5.7,16.3,15.5,16.3c3.2,0,6.4-0.7,8.5-1.7L1103.4,368z"></path>
	<path d="M1119.1,369.3v-17.2l-12.8-23.3h5.9l5.7,11.2c1.6,3.1,2.8,5.5,4,8.3h0.1c1.1-2.6,2.5-5.3,4.1-8.3l5.8-11.2h5.9l-13.6,23.2
		v17.2H1119.1z"></path>
</g>
<g>
	<path style="fill:#3FA9F5;" d="M268.7,478.5c1.1,0.7,2.8,1.3,4.6,1.3c2.6,0,4.1-1.4,4.1-3.4c0-1.8-1.1-2.9-3.7-3.9
		c-3.2-1.1-5.2-2.8-5.2-5.6c0-3.1,2.6-5.4,6.4-5.4c2,0,3.5,0.5,4.4,1l-0.7,2.1c-0.6-0.4-2-0.9-3.8-0.9c-2.7,0-3.7,1.6-3.7,3
		c0,1.8,1.2,2.8,3.9,3.8c3.3,1.3,5,2.9,5,5.8c0,3-2.3,5.7-6.9,5.7c-1.9,0-4-0.6-5-1.3L268.7,478.5z"></path>
	<path style="fill:#3FA9F5;" d="M286.3,463.4c0,0.9-0.6,1.6-1.6,1.6c-0.9,0-1.6-0.7-1.6-1.6c0-0.9,0.7-1.6,1.6-1.6
		C285.7,461.8,286.3,462.5,286.3,463.4z M283.4,481.6v-14.2h2.6v14.2H283.4z"></path>
	<path style="fill:#3FA9F5;" d="M302.5,467.4c-0.1,1-0.1,2.2-0.1,3.9v8.2c0,3.3-0.6,5.3-2,6.5c-1.4,1.3-3.4,1.7-5.2,1.7
		c-1.7,0-3.6-0.4-4.7-1.2l0.6-2c0.9,0.6,2.4,1.1,4.2,1.1c2.6,0,4.6-1.4,4.6-5v-1.6h-0.1c-0.8,1.3-2.3,2.4-4.5,2.4c-3.5,0-6-3-6-6.9
		c0-4.8,3.1-7.5,6.4-7.5c2.5,0,3.8,1.3,4.4,2.5h0.1l0.1-2.1H302.5z M299.8,473c0-0.4,0-0.8-0.1-1.2c-0.5-1.5-1.7-2.7-3.6-2.7
		c-2.5,0-4.2,2.1-4.2,5.4c0,2.8,1.4,5.1,4.2,5.1c1.6,0,3-1,3.6-2.6c0.1-0.4,0.2-0.9,0.2-1.4V473z"></path>
	<path style="fill:#3FA9F5;" d="M306.5,471.2c0-1.5,0-2.7-0.1-3.8h2.3l0.1,2.3h0.1c0.7-1.3,2.3-2.7,4.7-2.7c2,0,5,1.2,5,6v8.5H316
		v-8.2c0-2.3-0.9-4.2-3.3-4.2c-1.7,0-3,1.2-3.5,2.6c-0.1,0.3-0.2,0.8-0.2,1.2v8.5h-2.6V471.2z"></path>
	<path style="fill:#3FA9F5;" d="M329,461.8h10.6v2.1h-8.1v6.6h7.5v2.1h-7.5v8.9H329V461.8z"></path>
	<path style="fill:#3FA9F5;" d="M342.7,460.8h2.6v20.8h-2.6V460.8z"></path>
	<path style="fill:#3FA9F5;" d="M357.5,481.6l-0.2-1.8h-0.1c-0.8,1.1-2.3,2.1-4.3,2.1c-2.9,0-4.3-2-4.3-4.1c0-3.4,3-5.3,8.5-5.3
		v-0.3c0-1.2-0.3-3.3-3.2-3.3c-1.3,0-2.7,0.4-3.7,1.1l-0.6-1.7c1.2-0.8,2.9-1.3,4.7-1.3c4.3,0,5.4,3,5.4,5.8v5.3
		c0,1.2,0.1,2.4,0.2,3.4H357.5z M357.1,474.3c-2.8-0.1-6,0.4-6,3.2c0,1.7,1.1,2.5,2.4,2.5c1.8,0,3-1.2,3.4-2.4
		c0.1-0.3,0.1-0.6,0.1-0.8V474.3z"></path>
	<path style="fill:#3FA9F5;" d="M376,467.4c-0.1,1-0.1,2.2-0.1,3.9v8.2c0,3.3-0.6,5.3-2,6.5c-1.4,1.3-3.4,1.7-5.2,1.7
		c-1.7,0-3.6-0.4-4.7-1.2l0.6-2c0.9,0.6,2.4,1.1,4.2,1.1c2.6,0,4.6-1.4,4.6-5v-1.6h-0.1c-0.8,1.3-2.3,2.4-4.5,2.4c-3.5,0-6-3-6-6.9
		c0-4.8,3.1-7.5,6.4-7.5c2.5,0,3.8,1.3,4.4,2.5h0.1l0.1-2.1H376z M373.4,473c0-0.4,0-0.8-0.1-1.2c-0.5-1.5-1.7-2.7-3.6-2.7
		c-2.5,0-4.2,2.1-4.2,5.4c0,2.8,1.4,5.1,4.2,5.1c1.6,0,3-1,3.6-2.6c0.1-0.4,0.2-0.9,0.2-1.4V473z"></path>
</g>
<g>
	<path style="fill:#7AC943;" d="M404.6,479.1l12.2-17.8v-0.1h-11.2v-2.4h14.8v1.7l-12.1,17.8v0.1h12.3v2.4h-16V479.1z"></path>
	<path style="fill:#7AC943;" d="M425.3,473.4c0.1,3.9,2.5,5.5,5.4,5.5c2.1,0,3.3-0.4,4.4-0.8l0.5,2.1c-1,0.5-2.7,1-5.3,1
		c-4.9,0-7.8-3.2-7.8-8c0-4.8,2.8-8.5,7.4-8.5c5.2,0,6.5,4.5,6.5,7.4c0,0.6-0.1,1-0.1,1.3H425.3z M433.7,471.3c0-1.8-0.7-4.7-4-4.7
		c-2.9,0-4.2,2.7-4.4,4.7H433.7z"></path>
	<path style="fill:#7AC943;" d="M440,469.9c0-1.9,0-3.5-0.1-4.9h2.5l0.1,3.1h0.1c0.7-2.1,2.4-3.5,4.4-3.5c0.3,0,0.6,0,0.8,0.1v2.7
		c-0.3-0.1-0.6-0.1-1-0.1c-2,0-3.5,1.5-3.8,3.7c-0.1,0.4-0.1,0.8-0.1,1.3v8.4H440V469.9z"></path>
	<path style="fill:#7AC943;" d="M464.6,472.7c0,5.8-4,8.4-7.9,8.4c-4.3,0-7.6-3.1-7.6-8.1c0-5.3,3.5-8.4,7.8-8.4
		C461.5,464.6,464.6,467.9,464.6,472.7z M452.1,472.9c0,3.5,2,6.1,4.8,6.1c2.7,0,4.8-2.6,4.8-6.1c0-2.7-1.3-6.1-4.7-6.1
		S452.1,469.9,452.1,472.9z"></path>
</g>
<path style="fill:#9E005D;" d="M518.4,462c1.6-0.2,3.6-0.4,5.7-0.4c3.9,0,6.6,0.9,8.4,2.6c1.9,1.7,2.9,4.1,2.9,7.5
	c0,3.4-1.1,6.2-3,8.1c-1.9,1.9-5.2,3-9.2,3c-1.9,0-3.5-0.1-4.9-0.2V462z M521.1,480.4c0.7,0.1,1.7,0.2,2.7,0.2
	c5.7,0,8.9-3.2,8.9-8.8c0-4.9-2.7-8-8.4-8c-1.4,0-2.4,0.1-3.2,0.3V480.4z"></path>
<path style="fill:#9E005D;" d="M552.6,475c0,5.5-3.8,7.9-7.4,7.9c-4,0-7.2-3-7.2-7.7c0-5,3.3-7.9,7.4-7.9
	C549.7,467.3,552.6,470.4,552.6,475z M540.7,475.1c0,3.3,1.9,5.7,4.5,5.7c2.6,0,4.5-2.4,4.5-5.8c0-2.5-1.3-5.7-4.5-5.7
	S540.7,472.3,540.7,475.1z"></path>
<path style="fill:#9E005D;" d="M556,471.7c0-1.5,0-2.8-0.1-4h2.4l0.2,2.5h0.1c0.7-1.4,2.5-2.8,4.9-2.8c2.1,0,5.3,1.2,5.3,6.4v8.9
	H566v-8.6c0-2.4-0.9-4.4-3.5-4.4c-1.8,0-3.2,1.3-3.6,2.8c-0.1,0.3-0.2,0.8-0.2,1.3v9H556V471.7z"></path>
<path style="fill:#9E005D;" d="M575.6,461.4c-0.7,2.6-2,5.9-2.9,7.3l-1.7,0.2c0.7-1.8,1.5-5,1.8-7.3L575.6,461.4z"></path>
<path style="fill:#9E005D;" d="M581.5,463.3v4.3h3.9v2.1h-3.9v8.1c0,1.9,0.5,2.9,2,2.9c0.7,0,1.2-0.1,1.6-0.2l0.1,2
	c-0.5,0.2-1.4,0.4-2.4,0.4c-1.3,0-2.3-0.4-2.9-1.1c-0.8-0.8-1.1-2.1-1.1-3.9v-8.2h-2.3v-2.1h2.3V464L581.5,463.3z"></path>
<path style="fill:#9E005D;" d="M534.7,508.2c-1,0.5-3,1-5.5,1c-5.9,0-10.3-3.7-10.3-10.5c0-6.5,4.4-10.9,10.9-10.9
	c2.6,0,4.2,0.6,4.9,0.9l-0.6,2.2c-1-0.5-2.5-0.9-4.2-0.9c-4.9,0-8.1,3.1-8.1,8.6c0,5.1,2.9,8.4,8,8.4c1.6,0,3.3-0.3,4.4-0.9
	L534.7,508.2z"></path>
<path style="fill:#9E005D;" d="M546,508.9l-0.2-1.9h-0.1c-0.8,1.2-2.4,2.2-4.6,2.2c-3,0-4.6-2.1-4.6-4.3c0-3.6,3.2-5.6,9-5.6V499
	c0-1.2-0.3-3.5-3.4-3.5c-1.4,0-2.8,0.4-3.9,1.1l-0.6-1.8c1.2-0.8,3-1.3,4.9-1.3c4.6,0,5.7,3.1,5.7,6.1v5.6c0,1.3,0.1,2.6,0.2,3.6
	H546z M545.6,501.2c-3-0.1-6.3,0.5-6.3,3.4c0,1.8,1.2,2.6,2.6,2.6c1.9,0,3.2-1.2,3.6-2.5c0.1-0.3,0.2-0.6,0.2-0.9V501.2z"></path>
<path style="fill:#9E005D;" d="M552.6,498.6c0-1.8,0-3.3-0.1-4.7h2.4l0.1,2.9h0.1c0.7-2,2.3-3.3,4.1-3.3c0.3,0,0.5,0,0.8,0.1v2.6
	c-0.3-0.1-0.6-0.1-0.9-0.1c-1.9,0-3.3,1.5-3.6,3.5c-0.1,0.4-0.1,0.8-0.1,1.3v8h-2.7V498.6z"></path>
<path style="fill:#9E005D;" d="M563.9,501.9c0.1,3.7,2.4,5.2,5.1,5.2c1.9,0,3.1-0.3,4.1-0.8l0.5,1.9c-1,0.4-2.6,0.9-5,0.9
	c-4.6,0-7.4-3-7.4-7.5c0-4.5,2.7-8.1,7-8.1c4.9,0,6.2,4.3,6.2,7c0,0.6-0.1,1-0.1,1.3H563.9z M571.9,499.9c0-1.7-0.7-4.4-3.8-4.4
	c-2.7,0-4,2.5-4.2,4.4H571.9z"></path>
<path style="fill:#FF931E;" d="M608.2,475.3l-1.9,5.9h-2.5l6.4-18.8h2.9l6.4,18.8h-2.6l-2-5.9H608.2z M614.4,473.4l-1.8-5.4
	c-0.4-1.2-0.7-2.3-1-3.4h-0.1c-0.3,1.1-0.6,2.3-0.9,3.4l-1.8,5.4H614.4z"></path>
<path style="fill:#FF931E;" d="M633.1,477.6c0,1.4,0,2.6,0.1,3.7H631l-0.1-2.2h-0.1c-0.6,1.1-2.1,2.5-4.5,2.5
	c-2.1,0-4.7-1.2-4.7-5.9v-7.9h2.5v7.5c0,2.6,0.8,4.3,3,4.3c1.6,0,2.8-1.1,3.2-2.2c0.1-0.4,0.2-0.8,0.2-1.3v-8.3h2.5V477.6z"></path>
<path style="fill:#FF931E;" d="M638.3,467.8l1.9,2.9c0.5,0.8,0.9,1.4,1.4,2.2h0.1c0.4-0.8,0.9-1.5,1.3-2.2l1.9-2.9h2.6l-4.6,6.5
	l4.7,7h-2.8l-2-3c-0.5-0.8-1-1.5-1.4-2.3h-0.1c-0.4,0.8-0.9,1.5-1.4,2.3l-1.9,3h-2.7l4.8-6.9l-4.6-6.6H638.3z"></path>
<path style="fill:#FF931E;" d="M652.8,464c0,0.8-0.6,1.5-1.6,1.5c-0.9,0-1.5-0.7-1.5-1.5c0-0.9,0.6-1.5,1.5-1.5
	C652.2,462.4,652.8,463.1,652.8,464z M650.1,481.2v-13.5h2.5v13.5H650.1z"></path>
<path style="fill:#FF931E;" d="M656.6,461.5h2.5v19.8h-2.5V461.5z"></path>
<path style="fill:#FF931E;" d="M665.9,464c0,0.8-0.6,1.5-1.6,1.5c-0.9,0-1.5-0.7-1.5-1.5c0-0.9,0.6-1.5,1.5-1.5
	C665.3,462.4,665.9,463.1,665.9,464z M663.1,481.2v-13.5h2.5v13.5H663.1z"></path>
<path style="fill:#FF931E;" d="M677.1,481.2l-0.2-1.7h-0.1c-0.8,1.1-2.2,2-4.1,2c-2.7,0-4.1-1.9-4.1-3.9c0-3.3,2.9-5,8.1-5v-0.3
	c0-1.1-0.3-3.1-3.1-3.1c-1.3,0-2.6,0.4-3.5,1l-0.6-1.6c1.1-0.7,2.7-1.2,4.4-1.2c4.1,0,5.1,2.8,5.1,5.5v5c0,1.2,0.1,2.3,0.2,3.2
	H677.1z M676.8,474.4c-2.7-0.1-5.7,0.4-5.7,3c0,1.6,1.1,2.3,2.3,2.3c1.8,0,2.9-1.1,3.3-2.3c0.1-0.3,0.1-0.5,0.1-0.8V474.4z"></path>
<path style="fill:#FF931E;" d="M683.1,472c0-1.6,0-3-0.1-4.2h2.1l0.1,2.6h0.1c0.6-1.8,2.1-3,3.7-3c0.3,0,0.5,0,0.7,0.1v2.3
	c-0.3-0.1-0.5-0.1-0.8-0.1c-1.7,0-3,1.3-3.3,3.1c-0.1,0.3-0.1,0.7-0.1,1.1v7.2h-2.4V472z"></path>
<path style="fill:#FF931E;" d="M693.8,467.8l3,8c0.3,0.9,0.6,1.9,0.9,2.8h0.1c0.3-0.8,0.5-1.8,0.9-2.8l2.7-7.9h2.6l-3.7,9.6
	c-1.8,4.6-3,7-4.6,8.4c-1.2,1.1-2.4,1.5-3,1.6l-0.6-2.1c0.6-0.2,1.4-0.6,2.1-1.2c0.7-0.5,1.5-1.5,2.1-2.7c0.1-0.3,0.2-0.4,0.2-0.6
	c0-0.1-0.1-0.3-0.2-0.6l-5-12.4H693.8z"></path>
<path style="fill:#FF931E;" d="M628.3,489.7h10.1v2h-7.7v6.2h7.1v2h-7.1v8.5h-2.4V489.7z"></path>
<path style="fill:#FF931E;" d="M641.3,488.7h2.5v19.8h-2.5V488.7z"></path>
<path style="fill:#FF931E;" d="M655.3,508.5l-0.2-1.7H655c-0.8,1.1-2.2,2-4.1,2c-2.7,0-4.1-1.9-4.1-3.9c0-3.3,2.9-5,8.1-5v-0.3
	c0-1.1-0.3-3.1-3.1-3.1c-1.3,0-2.6,0.4-3.5,1l-0.6-1.6c1.1-0.7,2.7-1.2,4.4-1.2c4.1,0,5.1,2.8,5.1,5.5v5c0,1.2,0.1,2.3,0.2,3.2
	H655.3z M654.9,501.6c-2.7-0.1-5.7,0.4-5.7,3c0,1.6,1.1,2.3,2.3,2.3c1.8,0,2.9-1.1,3.3-2.3c0.1-0.3,0.1-0.5,0.1-0.8V501.6z"></path>
<path style="fill:#FF931E;" d="M672.9,495c-0.1,1-0.1,2.1-0.1,3.7v7.8c0,3.1-0.6,5-1.9,6.2c-1.3,1.2-3.2,1.6-4.9,1.6
	c-1.6,0-3.4-0.4-4.5-1.1l0.6-1.9c0.9,0.6,2.3,1.1,4,1.1c2.5,0,4.3-1.3,4.3-4.7v-1.5h-0.1c-0.8,1.3-2.2,2.3-4.3,2.3
	c-3.3,0-5.7-2.8-5.7-6.6c0-4.6,3-7.2,6.1-7.2c2.3,0,3.6,1.2,4.2,2.3h0.1l0.1-2H672.9z M670.3,500.3c0-0.4,0-0.8-0.1-1.1
	c-0.4-1.4-1.6-2.6-3.4-2.6c-2.3,0-4,2-4,5.1c0,2.6,1.3,4.8,4,4.8c1.5,0,2.9-0.9,3.4-2.5c0.1-0.4,0.2-0.9,0.2-1.3V500.3z"></path>
<path style="fill:#9E005D;" d="M734.3,462.2c1.6-0.2,3.6-0.4,5.7-0.4c3.9,0,6.6,0.9,8.4,2.6c1.9,1.7,2.9,4.1,2.9,7.5
	c0,3.4-1.1,6.2-3,8.1c-1.9,1.9-5.2,3-9.2,3c-1.9,0-3.5-0.1-4.9-0.2V462.2z M737,480.6c0.7,0.1,1.7,0.2,2.7,0.2
	c5.7,0,8.9-3.2,8.9-8.8c0-4.9-2.7-8-8.4-8c-1.4,0-2.4,0.1-3.2,0.3V480.6z"></path>
<path style="fill:#9E005D;" d="M768.4,475.1c0,5.5-3.8,7.9-7.4,7.9c-4,0-7.2-3-7.2-7.7c0-5,3.3-7.9,7.4-7.9
	C765.5,467.4,768.4,470.5,768.4,475.1z M756.5,475.3c0,3.3,1.9,5.7,4.5,5.7c2.6,0,4.5-2.4,4.5-5.8c0-2.5-1.3-5.7-4.5-5.7
	S756.5,472.4,756.5,475.3z"></path>
<path style="fill:#9E005D;" d="M771.8,471.8c0-1.5,0-2.8-0.1-4h2.4l0.2,2.5h0.1c0.7-1.4,2.5-2.8,4.9-2.8c2.1,0,5.3,1.2,5.3,6.4v8.9
	h-2.7v-8.6c0-2.4-0.9-4.4-3.5-4.4c-1.8,0-3.2,1.3-3.6,2.8c-0.1,0.3-0.2,0.8-0.2,1.3v9h-2.7V471.8z"></path>
<path style="fill:#9E005D;" d="M791.4,461.5c-0.7,2.6-2,5.9-2.9,7.3l-1.7,0.2c0.7-1.8,1.5-5,1.8-7.3L791.4,461.5z"></path>
<path style="fill:#9E005D;" d="M797.3,463.5v4.3h3.9v2.1h-3.9v8.1c0,1.9,0.5,2.9,2,2.9c0.7,0,1.2-0.1,1.6-0.2l0.1,2
	c-0.5,0.2-1.4,0.4-2.4,0.4c-1.3,0-2.3-0.4-2.9-1.1c-0.8-0.8-1.1-2.1-1.1-3.9v-8.2h-2.3v-2.1h2.3v-3.6L797.3,463.5z"></path>
<path style="fill:#9E005D;" d="M750.5,508.3c-1,0.5-3,1-5.5,1c-5.9,0-10.3-3.7-10.3-10.5c0-6.5,4.4-10.9,10.9-10.9
	c2.6,0,4.2,0.6,4.9,0.9l-0.6,2.2c-1-0.5-2.5-0.9-4.2-0.9c-4.9,0-8.1,3.1-8.1,8.6c0,5.1,2.9,8.4,8,8.4c1.6,0,3.3-0.3,4.4-0.9
	L750.5,508.3z"></path>
<path style="fill:#9E005D;" d="M761.8,509l-0.2-1.9h-0.1c-0.8,1.2-2.4,2.2-4.6,2.2c-3,0-4.6-2.1-4.6-4.3c0-3.6,3.2-5.6,9-5.6v-0.3
	c0-1.2-0.3-3.5-3.4-3.5c-1.4,0-2.8,0.4-3.9,1.1l-0.6-1.8c1.2-0.8,3-1.3,4.9-1.3c4.6,0,5.7,3.1,5.7,6.1v5.6c0,1.3,0.1,2.6,0.2,3.6
	H761.8z M761.4,501.4c-3-0.1-6.3,0.5-6.3,3.4c0,1.8,1.2,2.6,2.6,2.6c1.9,0,3.2-1.2,3.6-2.5c0.1-0.3,0.2-0.6,0.2-0.9V501.4z"></path>
<path style="fill:#9E005D;" d="M768.5,498.7c0-1.8,0-3.3-0.1-4.7h2.4l0.1,2.9h0.1c0.7-2,2.3-3.3,4.1-3.3c0.3,0,0.5,0,0.8,0.1v2.6
	c-0.3-0.1-0.6-0.1-0.9-0.1c-1.9,0-3.3,1.5-3.6,3.5c-0.1,0.4-0.1,0.8-0.1,1.3v8h-2.7V498.7z"></path>
<path style="fill:#9E005D;" d="M779.8,502c0.1,3.7,2.4,5.2,5.1,5.2c1.9,0,3.1-0.3,4.1-0.8l0.5,1.9c-1,0.4-2.6,0.9-5,0.9
	c-4.6,0-7.4-3-7.4-7.5c0-4.5,2.7-8.1,7-8.1c4.9,0,6.2,4.3,6.2,7c0,0.6-0.1,1-0.1,1.3H779.8z M787.7,500.1c0-1.7-0.7-4.4-3.8-4.4
	c-2.7,0-4,2.5-4.2,4.4H787.7z"></path>
<path style="fill:#FF1D25;" d="M851.8,460.4c1.3-0.2,2.9-0.4,5.1-0.4c2.6,0,4.5,0.6,5.7,1.7c1.1,1,1.8,2.5,1.8,4.3
	c0,1.8-0.5,3.3-1.6,4.4c-1.4,1.5-3.7,2.2-6.2,2.2c-0.8,0-1.5,0-2.1-0.2v8.2h-2.6V460.4z M854.4,470.3c0.6,0.2,1.3,0.2,2.2,0.2
	c3.2,0,5.1-1.5,5.1-4.4c0-2.7-1.9-4-4.8-4c-1.1,0-2,0.1-2.5,0.2V470.3z"></path>
<path style="fill:#FF1D25;" d="M875.1,480.6l-0.2-1.8h-0.1c-0.8,1.1-2.4,2.2-4.5,2.2c-3,0-4.5-2.1-4.5-4.2c0-3.5,3.1-5.5,8.8-5.4
	V471c0-1.2-0.3-3.4-3.3-3.4c-1.4,0-2.8,0.4-3.8,1.1l-0.6-1.8c1.2-0.8,3-1.3,4.8-1.3c4.5,0,5.6,3.1,5.6,6v5.5c0,1.3,0.1,2.5,0.2,3.5
	H875.1z M874.7,473.1c-2.9-0.1-6.2,0.5-6.2,3.3c0,1.7,1.1,2.5,2.5,2.5c1.9,0,3.1-1.2,3.5-2.5c0.1-0.3,0.2-0.6,0.2-0.8V473.1z"></path>
<path style="fill:#FF1D25;" d="M881.5,470.5c0-1.7,0-3.2-0.1-4.6h2.3l0.1,2.9h0.1c0.7-2,2.3-3.2,4.1-3.2c0.3,0,0.5,0,0.8,0.1v2.5
	c-0.3-0.1-0.5-0.1-0.9-0.1c-1.9,0-3.2,1.4-3.6,3.4c-0.1,0.4-0.1,0.8-0.1,1.2v7.8h-2.6V470.5z"></path>
<path style="fill:#FF1D25;" d="M894.5,461.8c0,0.9-0.6,1.6-1.7,1.6c-0.9,0-1.6-0.7-1.6-1.6c0-0.9,0.7-1.7,1.7-1.7
	C893.9,460.2,894.5,460.9,894.5,461.8z M891.6,480.6v-14.6h2.7v14.6H891.6z"></path>
<path style="fill:#FF1D25;" d="M901.8,461.7v4.2h3.8v2h-3.8v7.9c0,1.8,0.5,2.8,2,2.8c0.7,0,1.2-0.1,1.5-0.2l0.1,2
	c-0.5,0.2-1.3,0.4-2.4,0.4c-1.2,0-2.2-0.4-2.9-1.1c-0.8-0.8-1-2.1-1-3.8v-8H897v-2h2.3v-3.5L901.8,461.7z"></path>
<path style="fill:#FF1D25;" d="M909.9,465.9l3.2,8.7c0.3,1,0.7,2.1,0.9,3h0.1c0.3-0.9,0.6-2,0.9-3.1l2.9-8.6h2.8l-4,10.4
	c-1.9,5-3.2,7.6-5,9.2c-1.3,1.1-2.6,1.6-3.3,1.7l-0.7-2.2c0.7-0.2,1.5-0.6,2.3-1.3c0.7-0.6,1.6-1.6,2.2-3c0.1-0.3,0.2-0.5,0.2-0.6
	c0-0.2-0.1-0.4-0.2-0.7l-5.4-13.5H909.9z"></path>
<path style="fill:#FF1D25;" d="M860.2,487.2h11v2.2h-8.4v6.8h7.7v2.2h-7.7v9.2h-2.6V487.2z"></path>
<path style="fill:#FF1D25;" d="M874.3,486.1h2.7v21.5h-2.7V486.1z"></path>
<path style="fill:#FF1D25;" d="M889.6,507.6l-0.2-1.8h-0.1c-0.8,1.1-2.4,2.2-4.5,2.2c-3,0-4.5-2.1-4.5-4.2c0-3.5,3.1-5.5,8.8-5.4
	V498c0-1.2-0.3-3.4-3.3-3.4c-1.4,0-2.8,0.4-3.8,1.1l-0.6-1.8c1.2-0.8,3-1.3,4.8-1.3c4.5,0,5.6,3.1,5.6,6v5.5c0,1.3,0.1,2.5,0.2,3.5
	H889.6z M889.2,500.1c-2.9-0.1-6.2,0.5-6.2,3.3c0,1.7,1.1,2.5,2.5,2.5c1.9,0,3.1-1.2,3.5-2.5c0.1-0.3,0.2-0.6,0.2-0.8V500.1z"></path>
<path style="fill:#FF1D25;" d="M908.7,492.9c-0.1,1.1-0.1,2.2-0.1,4v8.5c0,3.4-0.7,5.4-2.1,6.7c-1.4,1.3-3.5,1.8-5.3,1.8
	c-1.8,0-3.7-0.4-4.9-1.2l0.7-2c1,0.6,2.5,1.1,4.3,1.1c2.7,0,4.7-1.4,4.7-5.1v-1.6h-0.1c-0.8,1.4-2.4,2.5-4.7,2.5
	c-3.6,0-6.2-3.1-6.2-7.1c0-5,3.2-7.8,6.6-7.8c2.5,0,3.9,1.3,4.6,2.5h0.1l0.1-2.2H908.7z M905.9,498.7c0-0.5,0-0.8-0.2-1.2
	c-0.5-1.5-1.8-2.8-3.7-2.8c-2.5,0-4.4,2.1-4.4,5.5c0,2.9,1.5,5.3,4.3,5.3c1.6,0,3.1-1,3.7-2.7c0.2-0.5,0.2-1,0.2-1.4V498.7z"></path>
<path style="fill:#9E005D;" d="M966.3,462.2c1.6-0.2,3.6-0.4,5.7-0.4c3.9,0,6.6,0.9,8.4,2.6c1.9,1.7,2.9,4.1,2.9,7.5
	c0,3.4-1.1,6.2-3,8.1c-1.9,1.9-5.2,3-9.2,3c-1.9,0-3.5-0.1-4.9-0.2V462.2z M969,480.6c0.7,0.1,1.7,0.2,2.7,0.2
	c5.7,0,8.9-3.2,8.9-8.8c0-4.9-2.7-8-8.4-8c-1.4,0-2.4,0.1-3.2,0.3V480.6z"></path>
<path style="fill:#9E005D;" d="M1000.4,475.1c0,5.5-3.8,7.9-7.4,7.9c-4,0-7.2-3-7.2-7.7c0-5,3.3-7.9,7.4-7.9
	C997.5,467.4,1000.4,470.5,1000.4,475.1z M988.5,475.3c0,3.3,1.9,5.7,4.5,5.7c2.6,0,4.5-2.4,4.5-5.8c0-2.5-1.3-5.7-4.5-5.7
	S988.5,472.4,988.5,475.3z"></path>
<path style="fill:#9E005D;" d="M1003.8,471.8c0-1.5,0-2.8-0.1-4h2.4l0.2,2.5h0.1c0.7-1.4,2.5-2.8,4.9-2.8c2.1,0,5.3,1.2,5.3,6.4v8.9
	h-2.7v-8.6c0-2.4-0.9-4.4-3.5-4.4c-1.8,0-3.2,1.3-3.6,2.8c-0.1,0.3-0.2,0.8-0.2,1.3v9h-2.7V471.8z"></path>
<path style="fill:#9E005D;" d="M1023.4,461.5c-0.7,2.6-2,5.9-2.9,7.3l-1.7,0.2c0.7-1.8,1.5-5,1.8-7.3L1023.4,461.5z"></path>
<path style="fill:#9E005D;" d="M1029.3,463.5v4.3h3.9v2.1h-3.9v8.1c0,1.9,0.5,2.9,2,2.9c0.7,0,1.2-0.1,1.6-0.2l0.1,2
	c-0.5,0.2-1.4,0.4-2.4,0.4c-1.3,0-2.3-0.4-2.9-1.1c-0.8-0.8-1.1-2.1-1.1-3.9v-8.2h-2.3v-2.1h2.3v-3.6L1029.3,463.5z"></path>
<path style="fill:#9E005D;" d="M982.5,508.3c-1,0.5-3,1-5.5,1c-5.9,0-10.3-3.7-10.3-10.5c0-6.5,4.4-10.9,10.9-10.9
	c2.6,0,4.2,0.6,4.9,0.9l-0.6,2.2c-1-0.5-2.5-0.9-4.2-0.9c-4.9,0-8.1,3.1-8.1,8.6c0,5.1,2.9,8.4,8,8.4c1.6,0,3.3-0.3,4.4-0.9
	L982.5,508.3z"></path>
<path style="fill:#9E005D;" d="M993.8,509l-0.2-1.9h-0.1c-0.8,1.2-2.4,2.2-4.6,2.2c-3,0-4.6-2.1-4.6-4.3c0-3.6,3.2-5.6,9-5.6v-0.3
	c0-1.2-0.3-3.5-3.4-3.5c-1.4,0-2.8,0.4-3.9,1.1l-0.6-1.8c1.2-0.8,3-1.3,4.9-1.3c4.6,0,5.7,3.1,5.7,6.1v5.6c0,1.3,0.1,2.6,0.2,3.6
	H993.8z M993.4,501.4c-3-0.1-6.3,0.5-6.3,3.4c0,1.8,1.2,2.6,2.6,2.6c1.9,0,3.2-1.2,3.6-2.5c0.1-0.3,0.2-0.6,0.2-0.9V501.4z"></path>
<path style="fill:#9E005D;" d="M1000.5,498.7c0-1.8,0-3.3-0.1-4.7h2.4l0.1,2.9h0.1c0.7-2,2.3-3.3,4.1-3.3c0.3,0,0.5,0,0.8,0.1v2.6
	c-0.3-0.1-0.6-0.1-0.9-0.1c-1.9,0-3.3,1.5-3.6,3.5c-0.1,0.4-0.1,0.8-0.1,1.3v8h-2.7V498.7z"></path>
<path style="fill:#9E005D;" d="M1011.8,502c0.1,3.7,2.4,5.2,5.1,5.2c1.9,0,3.1-0.3,4.1-0.8l0.5,1.9c-1,0.4-2.6,0.9-5,0.9
	c-4.6,0-7.4-3-7.4-7.5c0-4.5,2.7-8.1,7-8.1c4.9,0,6.2,4.3,6.2,7c0,0.6-0.1,1-0.1,1.3H1011.8z M1019.7,500.1c0-1.7-0.7-4.4-3.8-4.4
	c-2.7,0-4,2.5-4.2,4.4H1019.7z"></path>
<path style="fill:#FF7BAC;" d="M1097.3,479.5c-1,0.5-3.1,1-5.7,1c-6.1,0-10.7-3.9-10.7-11c0-6.8,4.6-11.4,11.4-11.4
	c2.7,0,4.4,0.6,5.2,1l-0.7,2.3c-1.1-0.5-2.6-0.9-4.4-0.9c-5.1,0-8.5,3.3-8.5,9c0,5.3,3.1,8.7,8.4,8.7c1.7,0,3.5-0.4,4.6-0.9
	L1097.3,479.5z"></path>
<path style="fill:#FF7BAC;" d="M1109.2,480.2l-0.2-2h-0.1c-0.9,1.2-2.5,2.3-4.8,2.3c-3.2,0-4.8-2.2-4.8-4.5c0-3.8,3.4-5.8,9.4-5.8
	v-0.3c0-1.3-0.4-3.6-3.5-3.6c-1.5,0-3,0.5-4.1,1.2l-0.6-1.9c1.3-0.8,3.2-1.4,5.1-1.4c4.8,0,5.9,3.3,5.9,6.4v5.8
	c0,1.4,0.1,2.7,0.3,3.7H1109.2z M1108.7,472.2c-3.1-0.1-6.6,0.5-6.6,3.5c0,1.8,1.2,2.7,2.7,2.7c2,0,3.3-1.3,3.8-2.6
	c0.1-0.3,0.2-0.6,0.2-0.9V472.2z"></path>
<path style="fill:#FF7BAC;" d="M1116.1,469.5c0-1.8,0-3.4-0.1-4.9h2.5l0.1,3.1h0.1c0.7-2.1,2.4-3.4,4.3-3.4c0.3,0,0.5,0,0.8,0.1v2.7
	c-0.3-0.1-0.6-0.1-1-0.1c-2,0-3.4,1.5-3.8,3.6c-0.1,0.4-0.1,0.8-0.1,1.3v8.3h-2.8V469.5z"></path>
<path style="fill:#FF7BAC;" d="M1126.7,469.5c0-1.8,0-3.4-0.1-4.9h2.5l0.1,3.1h0.1c0.7-2.1,2.4-3.4,4.3-3.4c0.3,0,0.5,0,0.8,0.1v2.7
	c-0.3-0.1-0.6-0.1-1-0.1c-2,0-3.4,1.5-3.8,3.6c-0.1,0.4-0.1,0.8-0.1,1.3v8.3h-2.8V469.5z"></path>
<path style="fill:#FF7BAC;" d="M1139.1,464.6l3.4,9.2c0.4,1,0.7,2.3,1,3.2h0.1c0.3-0.9,0.6-2.1,1-3.3l3.1-9.2h3l-4.3,11.1
	c-2,5.4-3.4,8.1-5.4,9.8c-1.4,1.2-2.8,1.7-3.5,1.8l-0.7-2.4c0.7-0.2,1.6-0.7,2.5-1.4c0.8-0.6,1.7-1.7,2.4-3.2
	c0.1-0.3,0.2-0.5,0.2-0.7c0-0.2-0.1-0.4-0.2-0.7l-5.8-14.4H1139.1z"></path>
<path style="fill:#FF7BAC;" d="M1090.2,488.5h11.7v2.4h-8.9v7.2h8.2v2.3h-8.2v9.8h-2.8V488.5z"></path>
<path style="fill:#FF7BAC;" d="M1105.3,487.3h2.8v22.9h-2.8V487.3z"></path>
<path style="fill:#FF7BAC;" d="M1121.5,510.2l-0.2-2h-0.1c-0.9,1.2-2.5,2.3-4.8,2.3c-3.2,0-4.8-2.2-4.8-4.5c0-3.8,3.4-5.8,9.4-5.8
	v-0.3c0-1.3-0.4-3.6-3.5-3.6c-1.5,0-3,0.5-4.1,1.2l-0.6-1.9c1.3-0.8,3.2-1.4,5.1-1.4c4.8,0,5.9,3.3,5.9,6.4v5.8
	c0,1.4,0.1,2.7,0.3,3.7H1121.5z M1121.1,502.2c-3.1-0.1-6.6,0.5-6.6,3.5c0,1.8,1.2,2.7,2.7,2.7c2,0,3.3-1.3,3.8-2.6
	c0.1-0.3,0.2-0.6,0.2-0.9V502.2z"></path>
<path style="fill:#FF7BAC;" d="M1141.9,494.6c-0.1,1.1-0.1,2.4-0.1,4.3v9.1c0,3.6-0.7,5.8-2.2,7.1c-1.5,1.4-3.7,1.9-5.7,1.9
	c-1.9,0-3.9-0.5-5.2-1.3l0.7-2.2c1,0.6,2.6,1.2,4.6,1.2c2.9,0,5-1.5,5-5.4v-1.7h-0.1c-0.9,1.5-2.5,2.6-5,2.6c-3.9,0-6.6-3.3-6.6-7.6
	c0-5.3,3.5-8.3,7-8.3c2.7,0,4.2,1.4,4.9,2.7h0.1l0.1-2.4H1141.9z M1138.9,500.8c0-0.5,0-0.9-0.2-1.3c-0.5-1.6-1.9-3-4-3
	c-2.7,0-4.6,2.3-4.6,5.9c0,3.1,1.5,5.6,4.6,5.6c1.7,0,3.3-1.1,3.9-2.9c0.2-0.5,0.2-1,0.2-1.5V500.8z"></path>
<g>
	<line style="fill:none;stroke:#000000;stroke-width:2;stroke-miterlimit:10;" x1="326.2" y1="407.1" x2="326.8" y2="437.1"></line>
	<polygon style="stroke:#000000;stroke-width:2;stroke-miterlimit:10;" points="326.5,451 323.5,443 320.5,435 326.5,435 332.5,435
		329.5,443 	"></polygon>
</g>
<g>
	<line style="fill:none;stroke:#000000;stroke-width:2;stroke-miterlimit:10;" x1="549.4" y1="409.1" x2="550" y2="439.1"></line>
	<polygon style="stroke:#000000;stroke-width:2;stroke-miterlimit:10;" points="549.7,453 546.7,445 543.7,437 549.7,437 555.7,437
		552.7,445 	"></polygon>
</g>
<g>
	<line style="fill:none;stroke:#000000;stroke-width:2;stroke-miterlimit:10;" x1="434.4" y1="408.1" x2="435" y2="438.1"></line>
	<polygon style="stroke:#000000;stroke-width:2;stroke-miterlimit:10;" points="434.7,452 431.7,444 428.7,436 434.7,436 440.7,436
		437.7,444 	"></polygon>
</g>
<g>
	<line style="fill:none;stroke:#000000;stroke-width:2;stroke-miterlimit:10;" x1="653.8" y1="408.6" x2="654.4" y2="438.6"></line>
	<polygon style="stroke:#000000;stroke-width:2;stroke-miterlimit:10;" points="654.1,452.5 651.1,444.5 648.1,436.5 654.1,436.5
		660.1,436.5 657.1,444.5 	"></polygon>
</g>
<g>
	<line style="fill:none;stroke:#000000;stroke-width:2;stroke-miterlimit:10;" x1="884" y1="406.6" x2="884.6" y2="436.6"></line>
	<polygon style="stroke:#000000;stroke-width:2;stroke-miterlimit:10;" points="884.3,450.5 881.3,442.5 878.3,434.5 884.3,434.5
		890.3,434.5 887.3,442.5 	"></polygon>
</g>
<g>
	<line style="fill:none;stroke:#000000;stroke-width:2;stroke-miterlimit:10;" x1="766" y1="409.6" x2="766.6" y2="439.6"></line>
	<polygon style="stroke:#000000;stroke-width:2;stroke-miterlimit:10;" points="766.3,453.5 763.3,445.5 760.3,437.5 766.3,437.5
		772.3,437.5 769.3,445.5 	"></polygon>
</g>
<g>
	<line style="fill:none;stroke:#000000;stroke-width:2;stroke-miterlimit:10;" x1="1114.4" y1="409.1" x2="1115" y2="439.1"></line>
	<polygon style="stroke:#000000;stroke-width:2;stroke-miterlimit:10;" points="1114.7,453 1111.7,445 1108.7,437 1114.7,437
		1120.7,437 1117.7,445 	"></polygon>
</g>
<g>
	<line style="fill:none;stroke:#000000;stroke-width:2;stroke-miterlimit:10;" x1="996.4" y1="412.1" x2="997" y2="442.1"></line>
	<polygon style="stroke:#000000;stroke-width:2;stroke-miterlimit:10;" points="996.7,456 993.7,448 990.7,440 996.7,440
		1002.7,440 999.7,448 	"></polygon>
</g>
</svg>